<svg xmlns="http://www.w3.org/2000/svg" xmlns:xlink="http://www.w3.org/1999/xlink" id="Layer_1" data-name="Layer 1" viewBox="0 -4 47.12 15.76" xml:space="preserve" preserveAspectRatio="xMinYMin none"><defs><style>.cls-1{fill:none;}.cls-2{fill:#231f20;}.cls-3{clip-path:url(#clip-path);}</style><clipPath id="clip-path" transform="translate(0 -0.21)"><rect class="cls-1" y="-5" width="47.12" height="20"></rect></clipPath></defs><title>InstituteLogo</title><text x="25.89" y="-0.2" font-family="Frutiger, 'Frutiger Linotype', 'Segoe UI', 'Myriad Pro', Helvetica, Arial, sans-serif" font-size="3.1" font-weight="500" fill="#231f20" letter-spacing="0.1">Member</text><path class="cls-2" d="M27.66,3.33l-.22-.64H26.28l-.22.64h-.47l1-2.88h.52l1,2.88ZM27,1.42c0-.15-.09-.29-.13-.45h0a2.92,2.92,0,0,1-.13.46l-.32.89h.92L27,1.42Z" transform="translate(0 -0.21)"></path><path class="cls-2" d="M30,3.33a3.19,3.19,0,0,1,0-.42h0a.78.78,0,0,1-.74.46c-.48,0-.63-.3-.63-.68V1.56l-.37,0V1.24a4.54,4.54,0,0,1,.83,0V2.57c0,.27.06.42.31.42s.56-.34.56-.76v-1h.45V3l.37,0V3.3a7,7,0,0,1-.8,0" transform="translate(0 -0.21)"></path><path class="cls-2" d="M31.6,3.37a3.14,3.14,0,0,1-.45,0l0-.39a1.64,1.64,0,0,0,.46.07c.24,0,.42-.11.42-.29,0-.42-.93-.17-.93-.9,0-.37.29-.66.87-.66a2.85,2.85,0,0,1,.4,0l0,.37A1.35,1.35,0,0,0,32,1.51c-.25,0-.37.11-.37.27,0,.41.93.2.93.9,0,.4-.35.69-.92.69" transform="translate(0 -0.21)"></path><path class="cls-2" d="M33.76,3.36c-.46,0-.59-.17-.59-.64V1.56h-.41V1.21h.41V.53l.45-.12v.8h.56v.35h-.56v1c0,.31.07.4.28.4a1.26,1.26,0,0,0,.28,0v.38a2.85,2.85,0,0,1-.42,0" transform="translate(0 -0.21)"></path><path class="cls-2" d="M35.22,1.68h0a.67.67,0,0,1,.71-.52l0,.45c-.43-.08-.64.22-.64.85v.87h-.45V1.56l-.37,0V1.24a4.33,4.33,0,0,1,.81,0c0,.11,0,.3,0,.47" transform="translate(0 -0.21)"></path><g class="cls-3"><path class="cls-2" d="M37.5,3.33a2.55,2.55,0,0,1,0-.4h0a.73.73,0,0,1-.7.44.53.53,0,0,1-.59-.54c0-.49.48-.77,1.25-.77V1.92c0-.26-.11-.4-.45-.4a1.32,1.32,0,0,0-.63.17l0-.39a2.13,2.13,0,0,1,.75-.14c.65,0,.82.29.82.72V3l.38,0V3.3a7,7,0,0,1-.8,0m0-1c-.67,0-.81.2-.81.38A.26.26,0,0,0,37,3a.57.57,0,0,0,.52-.6v0Z" transform="translate(0 -0.21)"></path><path class="cls-2" d="M39.2,3.33h-.45V.57l-.37,0V.24a7.22,7.22,0,0,1,.82,0V3.33Z" transform="translate(0 -0.21)"></path></g><path class="cls-2" d="M40.48,3.33H40V1.56l-.37,0V1.24a4.48,4.48,0,0,1,.83,0V3.33ZM40.25.89A.29.29,0,0,1,40,.6a.29.29,0,0,1,.29-.28.28.28,0,0,1,.29.28.29.29,0,0,1-.29.29" transform="translate(0 -0.21)"></path><path class="cls-2" d="M42.3,3.33c0-.14,0-.28,0-.4h0a.75.75,0,0,1-.71.44A.53.53,0,0,1,41,2.83c0-.49.49-.77,1.25-.77V1.92c0-.26-.11-.4-.44-.4a1.29,1.29,0,0,0-.63.17l-.05-.39a2.18,2.18,0,0,1,.75-.14c.65,0,.83.29.83.72V3l.37,0V3.3a7,7,0,0,1-.8,0m0-1c-.66,0-.81.2-.81.38a.26.26,0,0,0,.29.26.57.57,0,0,0,.52-.6v0Z" transform="translate(0 -0.21)"></path><path class="cls-2" d="M44.05,1.62h0a.77.77,0,0,1,.73-.46.59.59,0,0,1,.64.68V3.33H45V2c0-.26-.08-.42-.32-.42s-.56.34-.56.76v1h-.45V1.56l-.37,0V1.24a4.22,4.22,0,0,1,.8,0,2.93,2.93,0,0,1,0,.41" transform="translate(0 -0.21)"></path><polygon class="cls-2" points="25.89 4.35 26.36 4.35 26.36 7.23 25.89 7.23 25.89 4.35 25.89 4.35"></polygon><path class="cls-2" d="M27.58,5.73h0a.79.79,0,0,1,.74-.46c.48,0,.63.3.63.68V7.43h-.45V6.07c0-.27-.07-.42-.32-.42s-.56.34-.56.76v1h-.45V5.67a2,2,0,0,0-.37,0V5.34a7.13,7.13,0,0,1,.81,0,3,3,0,0,1,0,.42" transform="translate(0 -0.21)"></path><path class="cls-2" d="M30,7.48a2.06,2.06,0,0,1-.45-.05V7.05a2.14,2.14,0,0,0,.46.06c.25,0,.42-.1.42-.28,0-.42-.93-.17-.93-.9,0-.37.3-.66.87-.66a2.71,2.71,0,0,1,.4,0v.37a1.47,1.47,0,0,0-.42-.06c-.25,0-.37.1-.37.27,0,.41.94.2.94.9,0,.4-.36.69-.92.69" transform="translate(0 -0.21)"></path><path class="cls-2" d="M32.16,7.47c-.45,0-.59-.17-.59-.65V5.67h-.4V5.31h.4V4.64L32,4.52v.79h.56v.36H32v1c0,.32.06.4.28.4a1.18,1.18,0,0,0,.27,0v.38a2.72,2.72,0,0,1-.42,0" transform="translate(0 -0.21)"></path><path class="cls-2" d="M33.68,7.43h-.45V5.67a2.21,2.21,0,0,0-.37,0V5.34a7.13,7.13,0,0,1,.82,0V7.43ZM33.45,5a.29.29,0,1,1,0-.57.28.28,0,0,1,.3.28.29.29,0,0,1-.3.29" transform="translate(0 -0.21)"></path><path class="cls-2" d="M35.05,7.47c-.45,0-.59-.17-.59-.65V5.67h-.4V5.31h.4V4.64l.46-.12v.79h.56v.36h-.56v1c0,.32.06.4.28.4a1.33,1.33,0,0,0,.28,0v.38a3,3,0,0,1-.43,0" transform="translate(0 -0.21)"></path><path class="cls-2" d="M37.45,7.43a3,3,0,0,1,0-.41h0a.79.79,0,0,1-.74.46c-.48,0-.63-.31-.63-.68V5.67a2.21,2.21,0,0,0-.37,0V5.34a7.4,7.4,0,0,1,.82,0V6.68c0,.26.07.42.32.42s.55-.34.55-.76v-1h.46V7.08l.37,0V7.4a4.33,4.33,0,0,1-.81,0" transform="translate(0 -0.21)"></path><path class="cls-2" d="M39.36,7.47c-.45,0-.59-.17-.59-.65V5.67h-.41V5.31h.41V4.64l.45-.12v.79h.56v.36h-.55v1c0,.32.06.4.27.4a1.2,1.2,0,0,0,.28,0v.38a2.72,2.72,0,0,1-.42,0" transform="translate(0 -0.21)"></path><path class="cls-2" d="M42,6.4H40.6c0,.49.2.71.63.71A1.51,1.51,0,0,0,41.84,7l0,.36a2,2,0,0,1-.74.14c-.66,0-1-.34-1-1.09a1,1,0,0,1,1-1.12.82.82,0,0,1,.86.92,1.62,1.62,0,0,1,0,.21m-.87-.79a.49.49,0,0,0-.47.47h.9a.41.41,0,0,0-.43-.47" transform="translate(0 -0.21)"></path><g class="cls-3"><path class="cls-2" d="M44.26,7.48c-.59,0-1-.33-1-1.08a1,1,0,0,1,1.06-1.13c.57,0,1,.32,1,1.06a1.07,1.07,0,0,1-1.06,1.15m.05-1.82c-.28,0-.55.21-.55.69s.19.73.55.73.54-.23.54-.72-.18-.7-.54-.7" transform="translate(0 -0.21)"></path><path class="cls-2" d="M47.09,4.7a1,1,0,0,0-.29,0c-.28,0-.4.15-.4.48v.17H47v.36H46.4V7.43H46V5.67h-.41V5.31H46V5.15c0-.58.28-.86.83-.86a1.32,1.32,0,0,1,.34,0l0,.37Z" transform="translate(0 -0.21)"></path></g><path class="cls-2" d="M27.66,11.54l-.22-.63H26.28l-.22.63h-.47l1-2.88h.52l1,2.88ZM27,9.63c0-.15-.09-.29-.13-.44h0a2.81,2.81,0,0,1-.13.45l-.32.9h.92L27,9.63Z" transform="translate(0 -0.21)"></path><path class="cls-2" d="M29.09,9.89h0a.67.67,0,0,1,.71-.51l0,.45c-.43-.08-.64.21-.64.85v.86h-.45V9.78l-.37,0V9.45a7.13,7.13,0,0,1,.81,0,4.47,4.47,0,0,1,0,.47" transform="translate(0 -0.21)"></path><path class="cls-2" d="M31,11.58c-.55,0-.94-.27-.94-1a1,1,0,0,1,1.07-1.16,1.7,1.7,0,0,1,.46.06l0,.4a1.22,1.22,0,0,0-.43-.08c-.39,0-.59.28-.59.73s.14.68.57.68a1,1,0,0,0,.46-.1l0,.39a1.89,1.89,0,0,1-.6.11" transform="translate(0 -0.21)"></path><path class="cls-2" d="M31.76,8.74V8.46a5.55,5.55,0,0,1,.83,0v1a1.87,1.87,0,0,1,0,.42h0a.74.74,0,0,1,.72-.44c.48,0,.63.3.63.68v1.48h-.45V10.18c0-.27-.07-.42-.32-.42s-.55.34-.55.76v1h-.46V8.78l-.37,0" transform="translate(0 -0.21)"></path><path class="cls-2" d="M35.19,11.54h-.46V9.78l-.37,0V9.45a7.31,7.31,0,0,1,.83,0v2.12ZM35,9.11a.29.29,0,1,1,.29-.29.29.29,0,0,1-.29.29" transform="translate(0 -0.21)"></path><path class="cls-2" d="M36.56,11.58c-.45,0-.59-.17-.59-.65V9.78h-.4V9.42H36V8.75l.45-.13v.8H37v.36h-.55v1c0,.32.06.4.27.4a1.2,1.2,0,0,0,.28,0v.37a1.86,1.86,0,0,1-.42.05" transform="translate(0 -0.21)"></path><path class="cls-2" d="M39.15,10.51H37.8c0,.49.21.71.63.71a1.6,1.6,0,0,0,.62-.13l0,.36a2,2,0,0,1-.74.13c-.66,0-1-.34-1-1.08a1,1,0,0,1,1-1.12.82.82,0,0,1,.87.92,1.83,1.83,0,0,1,0,.21m-.87-.79a.48.48,0,0,0-.47.47h.9a.41.41,0,0,0-.43-.47" transform="translate(0 -0.21)"></path><path class="cls-2" d="M40.48,11.58c-.54,0-.94-.27-.94-1a1,1,0,0,1,1.08-1.16,1.82,1.82,0,0,1,.46.06l0,.4a1.18,1.18,0,0,0-.43-.08c-.39,0-.58.28-.58.73s.14.68.56.68a1,1,0,0,0,.46-.1l0,.39a1.84,1.84,0,0,1-.6.11" transform="translate(0 -0.21)"></path><path class="cls-2" d="M42.26,11.58c-.45,0-.59-.17-.59-.65V9.78h-.41V9.42h.41V8.75l.45-.13v.8h.56v.36h-.55v1c0,.32.06.4.27.4a1.2,1.2,0,0,0,.28,0v.37a1.86,1.86,0,0,1-.42.05" transform="translate(0 -0.21)"></path><g class="cls-3"><path class="cls-2" d="M43.55,11.58a2.09,2.09,0,0,1-.45,0l0-.39a1.59,1.59,0,0,0,.46.07c.24,0,.41-.1.41-.28,0-.43-.93-.17-.93-.9,0-.37.3-.66.88-.66a2.85,2.85,0,0,1,.4,0l0,.37a1.4,1.4,0,0,0-.41-.06c-.25,0-.38.1-.38.26,0,.41.94.2.94.91,0,.39-.35.68-.92.68" transform="translate(0 -0.21)"></path><path class="cls-2" d="M20.11,11.18c-.79-.2-1-1.45-1-2.09V7.91a3,3,0,0,0-1.18-2.57c-.15-.13-.29-.27-.43-.41A2.34,2.34,0,0,1,17,3.42V1.78a.32.32,0,0,0-.08-.22h.89l.48-.38H15c-.25,0-.36.11-.36.36v.27a.38.38,0,0,0,.26.34l1,.52-.68.89c-.16.2-.16.25-.16.56v0h-.38V2.5H7.89V4.15H7.51v0c0-.31,0-.36-.16-.56l-.67-.89,1-.52a.38.38,0,0,0,.26-.35V1.54c0-.25-.1-.36-.36-.36H4.19l.48.38h1a.29.29,0,0,0-.07.22V3.54A1.77,1.77,0,0,1,5,4.94a4.43,4.43,0,0,1-.48.49A2.87,2.87,0,0,0,3.45,7.91V9.08c0,.37-.14,1.94-1.13,2.1H0v.38H2.93a1.73,1.73,0,0,0,1.59-.77l.69-1.11V11c0,.48.28.52.4.52H8.27v-.38H6.43V8.83a1,1,0,0,0,.5-.75V7.26a1.38,1.38,0,0,0,.57-1.09V4.52h.38V7.6a4,4,0,0,0,1.55,3.07l1.72,1.21.11.09,1.85-1.31A4,4,0,0,0,14.65,7.6V4.52H15V6.17a1.08,1.08,0,0,0,.58,1.09v.81a.89.89,0,0,0,.34.76v2.35H14.27v.38h2.66c.1,0,.4,0,.4-.52V9.68L18,10.74h0a2,2,0,0,0,1.63.82h2.93v-.38Zm-13-7H6.3v.37h.84V6.17a1.12,1.12,0,0,1-.2.59V6.54A.48.48,0,0,0,6.45,6h-1v.37h1c.08,0,.11,0,.11.13V8.07c0,.32-.38.46-.5.52v2.6h-.4s-.07,0-.07-.15V9H5.21l-1,1.54a1.38,1.38,0,0,1-1.17.66,3,3,0,0,0,.73-2.09V7.91a2.52,2.52,0,0,1,1-2.21,6.56,6.56,0,0,0,.52-.53,2.16,2.16,0,0,0,.6-1.63V1.78a.2.2,0,0,1,.2-.22H7.56V1.8l-1.24.64V2.8l.73,1c.09.11.09.11.09.33v0Zm6.54,5.16V8.69h.4a3.57,3.57,0,0,1-.26.62Zm-.81-.92V7.77h1.4c0,.14,0,.36-.1.62Zm-1-.62h.66v.62h-.64l0-.62Zm0-.31,0-1.17a1.53,1.53,0,0,1,.92,1.17ZM12,10.55h.66L12,11v-.45Zm.6-.31H12V9.62h.62v.62Zm-.63-.93V8.69h1.45v.62ZM8.27,4.15V2.88h6V4.15h-.69l.3.37h.39V7.46H13.1A2.82,2.82,0,0,0,13,7.15l.76-.33-.12-.28-.76.33a1.65,1.65,0,0,0-.39-.51L13,5.7l-.24-.18-.51.65A2,2,0,0,0,11.87,6l0-1.17H10.69V6a2,2,0,0,0-.41.2l-.5-.65-.24.19.5.64a1.92,1.92,0,0,0-.39.51l-.76-.33-.12.28.76.33a1.94,1.94,0,0,0-.07.33H8.27V4.52h.37L9,4.15Zm2.32,6.09H10V9.62h.63v.62Zm0,.31V11l-.66-.45Zm0-1.24H9.17V8.69h1.45v.62Zm-1.74,0H8.73a3.65,3.65,0,0,1-.27-.62h.41v.62Zm-.49-.92a4.25,4.25,0,0,1-.1-.62H9.67v.62Zm2.27-.93h-.9a1.55,1.55,0,0,1,.92-1.17l0,1.17Zm0,.93H10V7.77h.67v.62ZM8.91,9.62h.76v.62H9.49a3.06,3.06,0,0,1-.58-.62m2.36,1.86-.39-.27c0-.73.1-5.86.11-6.12h.56c0,.26.1,5.39.12,6.12l-.4.27Zm1.78-1.24h-.18V9.62h.76a2.6,2.6,0,0,1-.58.62m5.24.28S17.34,9,17.34,9H17V11c0,.16-.07.15-.11.14h-.51V8.59l-.13-.05C16,8.47,16,8.2,16,8.07V6.54a.13.13,0,0,1,.11-.13h1V6h-1a.5.5,0,0,0-.48.5V6.8a.72.72,0,0,1-.21-.63V4.52h.85V4.15H15.4v0c0-.22,0-.22.09-.33l.74-1V2.44L15,1.8V1.56H16.4a.23.23,0,0,1,.21.22V3.42a2.64,2.64,0,0,0,.61,1.76,4.52,4.52,0,0,0,.45.43,2.66,2.66,0,0,1,1,2.3V9.09a3.37,3.37,0,0,0,.67,2.08,1.51,1.51,0,0,1-1.1-.65" transform="translate(0 -0.21)"></path></g><polygon class="cls-2" points="10.23 3.94 10.45 4.31 12.12 4.31 12.33 3.94 10.23 3.94 10.23 3.94"></polygon></svg>